<?xml version="1.0" standalone="no"?>
<!DOCTYPE svg PUBLIC "-//W3C//DTD SVG 20010904//EN"
 "http://www.w3.org/TR/2001/REC-SVG-20010904/DTD/svg10.dtd">
<svg version="1.0" xmlns="http://www.w3.org/2000/svg"
 width="500.000000pt" height="500.000000pt" viewBox="0 0 500.000000 500.000000"
 preserveAspectRatio="xMidYMid meet">

<g transform="translate(0.000000,500.000000) scale(0.100000,-0.100000)"
fill="#000000" stroke="none">
<path d="M0 2500 l0 -2500 2500 0 2500 0 0 2500 0 2500 -2500 0 -2500 0 0
-2500z m3540 1515 c248 -33 488 -131 675 -274 282 -215 481 -531 557 -884 29
-135 31 -404 5 -547 -25 -134 -77 -282 -147 -418 -143 -281 -361 -497 -648
-644 -64 -33 -137 -77 -162 -97 -405 -335 -979 -349 -1454 -34 -137 91 -310
263 -402 403 -130 197 -141 236 -56 206 62 -22 168 -29 257 -17 44 6 179 38
300 72 315 86 420 102 625 96 137 -4 182 -9 269 -32 140 -36 267 -89 399 -164
201 -115 251 -167 180 -189 -62 -20 -290 -60 -465 -82 -224 -29 -612 -31 -760
-4 -21 4 -36 4 -33 1 15 -16 254 -48 435 -58 237 -13 600 0 700 26 181 48 478
278 612 475 158 234 235 483 234 766 0 366 -136 691 -396 949 -193 192 -403
306 -676 367 -134 30 -393 32 -532 5 -530 -106 -920 -465 -1082 -997 -17 -59
-23 -71 -19 -40 10 69 58 208 112 323 193 408 591 710 1034 782 178 28 285 31
438 10z m-1700 -1336 c120 -262 220 -485 222 -495 3 -18 -13 -19 -464 -22
-445 -2 -468 -1 -468 16 0 15 378 842 434 950 36 69 40 62 276 -449z m1304
475 c21 -8 21 -50 0 -58 -9 -3 -153 -6 -320 -6 l-304 0 0 -275 0 -275 248 -2
247 -3 0 -25 0 -25 -247 -3 -248 -2 0 -149 c0 -119 -3 -151 -15 -161 -8 -7
-22 -10 -30 -6 -13 5 -15 67 -15 495 0 382 3 490 13 494 18 8 652 8 671 1z
m835 -32 c75 -147 431 -938 427 -949 -4 -10 -92 -13 -465 -13 -304 0 -462 3
-466 10 -5 8 308 702 423 938 32 63 54 67 81 14z m-3244 -512 l0 -535 -33 -67
c-49 -100 -134 -159 -234 -162 -97 -3 -91 54 7 66 107 14 177 84 195 194 6 32
10 278 10 545 0 267 3 489 7 493 4 4 16 6 28 4 20 -3 20 -7 20 -538z m1212
203 c-3 -10 -5 -4 -5 12 0 17 2 24 5 18 2 -7 2 -21 0 -30z"/>
<path d="M1405 2644 c-105 -223 -191 -409 -193 -415 -2 -5 144 -9 382 -9 212
0 386 3 386 7 0 8 -371 805 -379 815 -4 4 -92 -175 -196 -398z"/>
<path d="M3889 2940 c-30 -63 -117 -250 -195 -415 l-141 -300 194 -3 c106 -1
280 -1 387 0 l195 3 -182 390 c-100 215 -187 401 -193 415 -11 24 -15 18 -65
-90z"/>
</g>
</svg>
